PathFileType	4	(X/Y/Z)	Patient4_TMGait_0pt4_01_left_06.trc.trc
DataRate	CameraRate	NumFrames	NumMarkers	Units	OrigDataRate	OrigDataStartFrame	OrigNumFrames
74.866310160428	74.866310160428	6	33	mm	74.866310160428	1	       141
Frame#	Time	Sacral			L.Shoulder			Chest			R.Shoulder			Neck			R.ASIS			L.ASIS			R.Thigh.Superior			R.Thigh.Lateral			R.Thigh.Inferior			R.Patella			L.Thigh.Superior			L.Thigh.Lateral			L.Thigh.Inferior			L.Patella			L.Shank.Superior			L.Shank.Lateral			L.Shank.Inferior			R.Shank.Superior			R.Shank.Lateral			R.Shank.Inferior			R.Heel			R.Midfoot.Superior			R.Midfoot.Lateral			R.Toe			L.Heel			L.Midfoot.Lateral			L.Midfoot.Superior			L.Toe			L.Elbow			L.Wrist			R.Elbow			R.Wrist			
		X1	Y1	Z1	X2	Y2	Z2	X3	Y3	Z3	X4	Y4	Z4	X5	Y5	Z5	X6	Y6	Z6	X7	Y7	Z7	X8	Y8	Z8	X9	Y9	Z9	X10	Y10	Z10	X11	Y11	Z11	X12	Y12	Z12	X13	Y13	Z13	X14	Y14	Z14	X15	Y15	Z15	X16	Y16	Z16	X17	Y17	Z17	X18	Y18	Z18	X19	Y19	Z19	X20	Y20	Z20	X21	Y21	Z21	X22	Y22	Z22	X23	Y23	Z23	X24	Y24	Z24	X25	Y25	Z25	X26	Y26	Z26	X27	Y27	Z27	X28	Y28	Z28	X29	Y29	Z29	X30	Y30	Z30	X31	Y31	Z31	X32	Y32	Z32	X33	Y33	Z33	

1	6.620000000000	819.088559655274	1000.497535849160	527.714607956786	983.857130531142	1436.350500376933	339.638172554885	1094.814948891783	1372.823932885780	498.043311615593	1013.591170891072	1444.174134609063	674.524535317131	975.994652273713	1497.950541866313	495.765504386370	1055.850339040419	946.359910011542	635.621180975460	1029.891882614462	970.178974409718	363.380785940986	1097.657270484873	743.602995700981	602.941426119198	1017.872743252706	633.687896423160	664.803564552023	1092.692932360589	582.389489147848	582.657858879957	1091.388634853828	494.878345547848	587.434282395389	1118.769736655554	784.506026211167	386.966741805757	1071.583345587746	656.792668375031	309.030515675325	1179.254511675390	597.412779627780	362.989189458052	1194.639388815405	511.038772908765	356.217225933044	1136.376048913991	439.014521714962	349.191132636515	1000.116388534320	377.971457172166	304.486518585656	1009.716935007645	245.944226232268	355.600056374008	1064.193836927418	405.153519813472	594.541714635325	993.546654529156	301.525112880067	656.717913175249	1034.431248072818	206.902269693447	592.411487872059	898.563417476868	42.656531265905	563.315505070296	1070.018782697230	97.482950507498	599.923553843880	982.130886534136	37.343346897346	638.725531143394	1190.347090854973	44.467285859499	627.118580840311	831.853518186313	149.495082811500	399.028517411965	892.427191442723	120.590290064271	312.817792467958	996.461049165232	144.999912537330	330.861518084086	1090.439641174271	50.272954848335	289.558298210218	958.120626310733	1084.431545993224	221.226199366042	1117.683875889091	874.354617391690	220.837480798066	1028.309851484522	1101.815041196033	812.110275485171	1222.292579039696	929.068157514452	803.745388119043	
2	6.633357142857	818.014303184552	1001.964955807451	530.214000057695	982.764334774873	1436.715167314399	340.760510539189	1095.034551774255	1372.992353316858	498.126266571009	1015.886705622612	1445.070206629634	675.182461665928	976.504227316992	1498.604890994453	496.694776068965	1054.766927268999	946.212405940120	636.043517772280	1027.168923057645	971.688743080757	364.077764495348	1094.224359243529	743.128798050338	602.557826469457	1013.767054530003	634.054687758379	665.280193748174	1087.148319271465	582.119499618317	582.613951863233	1085.258388770513	494.888113327132	587.622073268276	1116.556348324704	786.718610951300	388.081566490842	1070.094213810700	658.983827567667	309.714419380697	1177.261788235381	599.556271564816	364.594999170291	1193.864929133065	514.836939747553	357.550548634013	1139.521161136325	442.101462371417	349.640141108432	1008.590786930446	373.393486668941	303.489597848761	1026.326587068705	242.532587593650	353.866062726035	1058.130740848867	405.227953836625	594.732938287722	987.630187659260	301.523401123799	656.947486038114	1028.622354765686	206.945379203794	592.475349904981	892.893276889293	42.571456627149	563.412817500709	1064.307847067870	97.499298792031	599.894098413037	976.386880295907	37.329549371747	638.708992729429	1184.591066249450	44.528691665579	627.152555029980	856.362556960937	135.309717286579	395.612261786670	918.583464102591	110.841193682250	309.738950580254	1020.087625799318	141.283041580877	328.612354544210	1119.426646539139	53.260889980131	287.723979591695	954.281080389369	1084.748255449915	222.975296080702	1106.946564009236	870.196781414050	219.275989306047	1036.188737490740	1103.186410930413	812.431712090690	1236.322358004658	939.759380020456	798.680173068243	
3	6.646714285714	816.928384843060	1003.402959280428	532.667923228307	981.721688139033	1437.031119791859	341.844772924056	1095.271363282420	1373.105376131519	498.187431478941	1018.177034239581	1445.912732146040	675.805192883464	977.032311171044	1499.219302699558	497.580314365294	1053.675210504241	946.038002816031	636.452333773701	1024.472599964970	973.125247541201	364.760362710729	1090.818355576643	742.643528898191	602.175822423540	1009.703745795821	634.397953699571	665.759595984874	1081.658384497345	581.839884495799	582.577681741756	1079.182680417446	494.889776372313	587.824543382889	1114.226577152993	788.729385827825	389.198148896120	1068.477708119528	661.050028236660	310.341651010577	1174.998121474630	601.483320701382	366.274486783788	1192.854747531596	518.501256619853	358.940117150044	1142.449299226227	445.132986073326	350.136556191023	1017.096700706902	368.840932600718	302.392228104038	1042.860398771520	239.288694050240	352.202594825985	1052.123557269876	405.290533894068	594.934719783289	981.760227321814	301.506138153139	657.171784901122	1022.849176127365	206.982762930319	592.546706845716	887.248394961481	42.486468502476	563.501756421316	1058.625383295524	97.512858618995	599.867668005162	970.674619512695	37.312519151609	638.694970327530	1178.867889306854	44.599244743462	627.184386827015	880.925340502934	121.420614545228	392.079808093048	944.886737552094	101.406699990469	306.694186093942	1043.702690040658	137.861506240935	326.530842232261	1148.349880464502	56.639998546015	286.332050590109	950.573597750390	1085.017947469589	224.680033556989	1096.213221518362	866.018316488291	217.688376284986	1043.991533065706	1104.510153546932	812.689567320350	1250.151068796190	950.481064819099	793.523113999762	
4	6.660071428571	815.826663046117	1004.778977511048	535.018293984302	980.782542376861	1437.258163580190	342.843229652838	1095.539621277888	1373.115011226197	498.200776375598	1020.445411375198	1446.652426320558	676.350858914949	977.595352333093	1499.757408600727	498.372795086429	1052.575955315311	945.818380921549	636.830280784669	1021.834946208373	974.416388972266	365.403418808603	1087.473686378273	742.137991714722	601.800940623320	1005.734787607442	634.693532009391	666.236752142152	1076.297556584186	581.540351963816	582.551388150688	1073.236988871232	494.869666755148	588.042570611736	1111.695357135285	790.371283846652	390.301003488126	1066.628470799984	662.873224442798	310.870557262898	1172.279395090832	603.023004258414	368.045138512004	1191.427963564117	521.899210224183	360.402534616450	1144.956289389283	448.042069379239	350.696260585243	1025.541972016731	364.378315688764	301.158163441370	1059.099679633164	236.381668636300	350.674670908611	1046.244478149568	405.328981711492	595.150261255655	975.998375930038	301.463551941703	657.388607980297	1017.155559864152	207.008075316082	592.629998655367	881.658749271250	42.402400412155	563.577870003086	1053.001548372236	97.518727549759	599.842026444932	965.030220772781	37.290514349886	638.686541420316	1173.213829122687	44.682634642160	627.211844713752	905.351371425429	108.208205733266	388.438312342938	971.168388248150	92.620657687664	303.765055870553	1067.067453198834	134.989279175422	324.746116643649	1176.863617082369	60.651610788617	285.656612468587	947.108341239849	1085.207399299912	226.283609851016	1085.530748130001	861.848640331995	216.063783444345	1051.631222691615	1105.742539222352	812.808778958066	1263.526519929477	961.217819129673	788.194067290417	
5	6.673428571429	814.702538376643	1006.069090074602	537.218378900643	979.991300546512	1437.365823135585	343.714107601320	1095.851380703172	1372.983029670023	498.142682921148	1022.679726161739	1447.251772428645	676.782631269198	978.208535148974	1500.190862562672	499.030924222577	1051.468641031158	945.539578656726	637.161215517215	1019.276753791443	975.504271518510	365.983387831561	1084.214565382410	741.602525451757	601.443717346999	1001.895730652964	634.921216809416	666.707300480224	1071.119676515123	581.210347561733	582.535828231880	1067.474639600438	494.815768967603	588.273064376694	1108.886604572321	791.516377348807	391.377967911660	1064.466916305752	664.368624566727	311.257782766327	1168.974638396893	604.059573580661	369.901302735887	1189.450218708485	524.937179934300	361.936787725290	1146.888066488928	450.780825363864	351.319978744177	1033.838888997154	360.076309033662	299.773086252399	1074.847000621412	233.963658567668	349.341029052846	1040.541141755462	405.332497077959	595.379506272827	970.382149901914	301.391222723443	657.600412859385	1011.562455069981	207.015265672638	592.727864091241	876.133064879099	42.319041839557	563.641088665844	1047.442280357624	97.511787692516	599.812963436161	959.465169828511	37.261986686358	638.686117863337	1167.640176765870	44.779797223417	627.233746552746	929.450584402472	96.015614990720	384.733328097405	997.243801443599	84.766502883836	301.046005822700	1089.955453403059	132.874093903618	323.365471448615	1204.643345917192	65.468741513236	285.910741686209	943.957883925278	1085.294424463190	227.737303926649	1074.916547232167	857.721407910511	214.398547036750	1059.057516614992	1106.850480316513	812.719604411040	1276.258973638067	971.976344688251	782.610460971743	
6	6.686785714286	813.551640656787	1007.257502804774	539.233449931985	979.379908728465	1437.337200660701	344.423644538264	1096.214358994782	1372.686042806706	497.993856323100	1024.869301004866	1447.688371269156	677.071088519946	978.882707197771	1500.502021848611	499.524077879786	1050.353764726516	945.194912850554	637.431169374177	1016.809951841928	976.349785868160	366.479036212442	1081.058579594399	741.029302414242	601.118371553875	998.208445784844	635.066685290654	667.166153682002	1066.161885777035	580.840665249180	582.529476497696	1061.931820374830	494.718264875704	588.507848536781	1105.750702390607	792.091683982037	392.417160575650	1061.952349712600	665.491507769400	311.464662022962	1165.034004823664	604.546406817159	371.807009933560	1186.855490146765	527.564246611562	363.518741959904	1148.154372587717	453.318780903012	351.989874409309	1041.886652328829	356.011034794287	298.255489538170	1089.909255599144	232.152029907832	348.248319017476	1035.041695257457	405.292840027245	595.618341528432	964.931261071968	301.290757553745	657.813604180800	1006.074935496295	206.999412186045	592.840802450541	870.666259190969	42.236086559679	563.694588959482	1041.937796290593	97.487488532748	599.775099249589	953.974073708746	37.226006452384	638.695302886709	1162.141136104935	44.888258358565	627.249860682510	952.992487289931	85.131665426626	381.061293441247	1022.860071946286	78.053803469465	298.641218904559	1112.119292509931	131.648095646025	322.458697281973	1231.351014162128	71.149119280064	287.201174062642	941.152345825643	1085.271441027396	229.001938865539	1064.378184850251	853.681303074851	212.699667981628	1066.248999573401	1107.813866327598	812.364068359312	1288.216454684023	982.762641000817	776.706135624680	
